HIERARCHY
ROOT hips
{
	OFFSET -0.003675 0.299928 -0.021708
	CHANNELS 6 Xposition Yposition Zposition Xrotation Yrotation Zrotation
	JOINT LowerBack
	{
		OFFSET 0.000919 0.177588 0.009275
		CHANNELS 3 Xrotation Yrotation Zrotation
		JOINT spine
		{
			OFFSET 0.000919 0.177588 0.009275
			CHANNELS 3 Xrotation Yrotation Zrotation
			JOINT chest
			{
				OFFSET 0.000456 0.100015 0.004638
				CHANNELS 3 Xrotation Yrotation Zrotation
				JOINT neck
				{
					OFFSET 0.000456 0.100015 0.004638
					CHANNELS 3 Xrotation Yrotation Zrotation
					JOINT head
					{
						OFFSET 0.000924 0.155147 0.009274
						CHANNELS 6 Xposition Yposition Zposition Xrotation Yrotation Zrotation
						End Site
						{
							OFFSET 0.000000 0.153400 0.000000
						}
					}
				}
				JOINT shoulder.L
				{
					OFFSET 0.019937 0.078966 0.057518
					CHANNELS 6 Xposition Yposition Zposition Yrotation Xrotation Zrotation
					JOINT upper_arm.L
					{
						OFFSET 0.177024 -0.020465 -0.095062
						CHANNELS 6 Xposition Yposition Zposition Xrotation Yrotation Zrotation
						JOINT forearm.L
						{
							OFFSET 0.247100 -0.135500 -0.061800
							CHANNELS 3 Xrotation Yrotation Zrotation
							JOINT hand.L
							{
								OFFSET 0.217000 -0.143000 0.039300
								CHANNELS 3 Xrotation Yrotation Zrotation
								JOINT palm.01.L
								{
									OFFSET 0.021770 -0.038291 0.012954
									CHANNELS 6 Xposition Yposition Zposition Yrotation Xrotation Zrotation
									JOINT f_index.01.L
									{
										OFFSET 0.053215 -0.044137 0.008236
										CHANNELS 3 Xrotation Yrotation Zrotation
										JOINT f_index.02.L
										{
											OFFSET 0.036108 -0.024723 -0.010656
											CHANNELS 3 Xrotation Yrotation Zrotation
											JOINT f_index.03.L
											{
												OFFSET 0.021342 -0.014948 -0.010846
												CHANNELS 3 Xrotation Yrotation Zrotation
												End Site
												{
													OFFSET 0.015600 -0.009860 -0.013421
												}
											}
										}
									}
									JOINT thumb.01.L
									{
										OFFSET -0.009090 -0.002348 -0.024223
										CHANNELS 6 Xposition Yposition Zposition Xrotation Yrotation Zrotation
										JOINT thumb.02.L
										{
											OFFSET 0.019713 -0.035076 -0.011120
											CHANNELS 3 Xrotation Yrotation Zrotation
											JOINT thumb.03.L
											{
												OFFSET 0.024877 -0.021748 -0.005176
												CHANNELS 3 Xrotation Yrotation Zrotation
												End Site
												{
													OFFSET 0.016125 -0.013029 -0.001569
												}
											}
										}
									}
								}
								JOINT palm.02.L
								{
									OFFSET 0.032823 -0.025104 0.012281
									CHANNELS 6 Xposition Yposition Zposition Yrotation Xrotation Zrotation
									JOINT f_middle.01.L
									{
										OFFSET 0.055723 -0.038469 0.008037
										CHANNELS 3 Xrotation Yrotation Zrotation
										JOINT f_middle.02.L
										{
											OFFSET 0.038167 -0.027473 -0.015582
											CHANNELS 3 Xrotation Yrotation Zrotation
											JOINT f_middle.03.L
											{
												OFFSET 0.021707 -0.016587 -0.017037
												CHANNELS 3 Xrotation Yrotation Zrotation
												End Site
												{
													OFFSET 0.014112 -0.010584 -0.014294
												}
											}
										}
									}
								}
								JOINT palm.03.L
								{
									OFFSET 0.039230 -0.011402 0.008390
									CHANNELS 6 Xposition Yposition Zposition Yrotation Xrotation Zrotation
									JOINT f_ring.01.L
									{
										OFFSET 0.061796 -0.031470 0.007910
										CHANNELS 3 Xrotation Yrotation Zrotation
										JOINT f_ring.02.L
										{
											OFFSET 0.033092 -0.023401 -0.019127
											CHANNELS 3 Xrotation Yrotation Zrotation
											JOINT f_ring.03.L
											{
												OFFSET 0.021392 -0.015362 -0.017824
												CHANNELS 3 Xrotation Yrotation Zrotation
												End Site
												{
													OFFSET 0.008670 -0.007297 -0.014686
												}
											}
										}
									}
								}
								JOINT palm.04.L
								{
									OFFSET 0.043417 0.002450 0.002889
									CHANNELS 6 Xposition Yposition Zposition Yrotation Xrotation Zrotation
									JOINT f_pinky.01.L
									{
										OFFSET 0.069986 -0.026156 0.003627
										CHANNELS 3 Xrotation Yrotation Zrotation
										JOINT f_pinky.02.L
										{
											OFFSET 0.018520 -0.012813 -0.016429
											CHANNELS 3 Xrotation Yrotation Zrotation
											JOINT f_pinky.03.L
											{
												OFFSET 0.013822 -0.009796 -0.014947
												CHANNELS 3 Xrotation Yrotation Zrotation
												End Site
												{
													OFFSET 0.007238 -0.006103 -0.011657
												}
											}
										}
									}
								}
							}
						}
					}
				}
				JOINT shoulder.R
				{
					OFFSET -0.016662 0.078957 0.057696
					CHANNELS 6 Xposition Yposition Zposition Yrotation Xrotation Zrotation
					JOINT upper_arm.R
					{
						OFFSET -0.176972 -0.020537 -0.095144
						CHANNELS 6 Xposition Yposition Zposition Xrotation Yrotation Zrotation
						JOINT forearm.R
						{
							OFFSET -0.247100 -0.135500 -0.061800
							CHANNELS 3 Xrotation Yrotation Zrotation
							JOINT hand.R
							{
								OFFSET -0.217000 -0.143000 0.039300
								CHANNELS 3 Xrotation Yrotation Zrotation
								JOINT palm.01.R
								{
									OFFSET -0.021773 -0.038278 0.012988
									CHANNELS 6 Xposition Yposition Zposition Yrotation Xrotation Zrotation
									JOINT f_index.01.R
									{
										OFFSET -0.053212 -0.044139 0.008249
										CHANNELS 3 Xrotation Yrotation Zrotation
										JOINT f_index.02.R
										{
											OFFSET -0.036049 -0.024835 -0.010634
											CHANNELS 3 Xrotation Yrotation Zrotation
											JOINT f_index.03.R
											{
												OFFSET -0.021371 -0.014881 -0.010866
												CHANNELS 3 Xrotation Yrotation Zrotation
												End Site
												{
													OFFSET -0.015584 -0.009883 -0.013422
												}
											}
										}
									}
									JOINT thumb.01.R
									{
										OFFSET 0.009113 -0.002381 -0.024211
										CHANNELS 6 Xposition Yposition Zposition Xrotation Yrotation Zrotation
										JOINT thumb.02.R
										{
											OFFSET -0.019694 -0.035097 -0.011088
											CHANNELS 3 Xrotation Yrotation Zrotation
											JOINT thumb.03.R
											{
												OFFSET -0.024867 -0.021762 -0.005168
												CHANNELS 3 Xrotation Yrotation Zrotation
												End Site
												{
													OFFSET -0.016120 -0.013036 -0.001565
												}
											}
										}
									}
								}
								JOINT palm.02.R
								{
									OFFSET -0.032828 -0.025095 0.012286
									CHANNELS 6 Xposition Yposition Zposition Yrotation Xrotation Zrotation
									JOINT f_middle.01.R
									{
										OFFSET -0.055721 -0.038472 0.008040
										CHANNELS 3 Xrotation Yrotation Zrotation
										JOINT f_middle.02.R
										{
											OFFSET -0.038101 -0.027593 -0.015557
											CHANNELS 3 Xrotation Yrotation Zrotation
											JOINT f_middle.03.R
											{
												OFFSET -0.021730 -0.016530 -0.017054
												CHANNELS 3 Xrotation Yrotation Zrotation
												End Site
												{
													OFFSET -0.014096 -0.010608 -0.014293
												}
											}
										}
									}
								}
								JOINT palm.03.R
								{
									OFFSET -0.039192 -0.011488 0.008390
									CHANNELS 6 Xposition Yposition Zposition Yrotation Xrotation Zrotation
									JOINT f_ring.01.R
									{
										OFFSET -0.061839 -0.031387 0.007876
										CHANNELS 3 Xrotation Yrotation Zrotation
										JOINT f_ring.02.R
										{
											OFFSET -0.033068 -0.023437 -0.019125
											CHANNELS 3 Xrotation Yrotation Zrotation
											JOINT f_ring.03.R
											{
												OFFSET -0.021371 -0.015393 -0.017822
												CHANNELS 3 Xrotation Yrotation Zrotation
												End Site
												{
													OFFSET -0.008654 -0.007321 -0.014684
												}
											}
										}
									}
								}
								JOINT palm.04.R
								{
									OFFSET -0.043421 0.002443 0.002845
									CHANNELS 6 Xposition Yposition Zposition Yrotation Xrotation Zrotation
									JOINT f_pinky.01.R
									{
										OFFSET -0.069983 -0.026169 0.003599
										CHANNELS 3 Xrotation Yrotation Zrotation
										JOINT f_pinky.02.R
										{
											OFFSET -0.018501 -0.012842 -0.016428
											CHANNELS 3 Xrotation Yrotation Zrotation
											JOINT f_pinky.03.R
											{
												OFFSET -0.013806 -0.009821 -0.014946
												CHANNELS 3 Xrotation Yrotation Zrotation
												End Site
												{
													OFFSET -0.007226 -0.006121 -0.011655
												}
											}
										}
									}
								}
							}
						}
					}
				}
			}
		}
	}
	JOINT pelvis.L
	{
		OFFSET 0.000000 0.000000 0.000000
		CHANNELS 6 Xposition Yposition Zposition Xrotation Yrotation Zrotation
		JOINT thigh.L
		{
			OFFSET 0.101675 0.001054 -0.000000
			CHANNELS 3 Xrotation Yrotation Zrotation
			JOINT shin.L
			{
				OFFSET 0.000000 -0.534800 0.041000
				CHANNELS 3 Xrotation Yrotation Zrotation
				JOINT foot.L
				{
					OFFSET 0.000000 -0.452000 -0.044800
					CHANNELS 3 Xrotation Yrotation Zrotation
					JOINT toe.L
					{
						OFFSET -0.000000 -0.068500 0.109600
						CHANNELS 3 Xrotation Yrotation Zrotation
						End Site
						{
							OFFSET -0.000000 0.000000 0.067200
						}
					}
				}
				JOINT heel.L
				{
					OFFSET 0.000000 -0.452000 -0.044800
					CHANNELS 3 Xrotation Yrotation Zrotation
					JOINT heel.02.L
					{
						OFFSET -0.038000 -0.085200 0.016200
						CHANNELS 6 Xposition Yposition Zposition Xrotation Yrotation Zrotation
						End Site
						{
							OFFSET 0.080000 -0.000000 0.000000
						}
					}
				}
			}
		}
	}
	JOINT pelvis.R
	{
		OFFSET 0.000000 0.000000 0.000000
		CHANNELS 6 Xposition Yposition Zposition Xrotation Yrotation Zrotation
		JOINT thigh.R
		{
			OFFSET -0.094325 0.001054 0.000000
			CHANNELS 3 Xrotation Yrotation Zrotation
			JOINT shin.R
			{
				OFFSET 0.000000 -0.534800 0.041000
				CHANNELS 3 Xrotation Yrotation Zrotation
				JOINT foot.R
				{
					OFFSET 0.000000 -0.452000 -0.044800
					CHANNELS 3 Xrotation Yrotation Zrotation
					JOINT toe.R
					{
						OFFSET -0.000000 -0.068500 0.109600
						CHANNELS 3 Xrotation Yrotation Zrotation
						End Site
						{
							OFFSET -0.000000 0.000000 0.067200
						}
					}
				}
				JOINT heel.R
				{
					OFFSET 0.000000 -0.452000 -0.044800
					CHANNELS 3 Xrotation Yrotation Zrotation
					JOINT heel.02.R
					{
						OFFSET 0.038000 -0.085200 0.016200
						CHANNELS 6 Xposition Yposition Zposition Xrotation Yrotation Zrotation
						End Site
						{
							OFFSET -0.080000 0.000000 -0.000000
						}
					}
				}
			}
		}
	}
}
MOTION
Frames: 4
Frame Time: 0.041667
-0.007931 0.259634 -0.015975 159.284861 -101.779278 148.783199 -0.000000 0.000000 0.000000 -0.000000 -0.000000 0.000001 -0.000000 -0.000000 0.000000 0.000000 -0.000001 -0.000000 0.000924 0.155148 0.009274 -8.014004 0.026469 5.140615 0.019937 0.078966 0.057518 -3.564264 5.524248 38.125105 0.177025 -0.020465 -0.095062 -44.214448 0.048139 -38.674853 -12.432075 -15.340118 -4.535073 0.000001 -0.000001 0.000003 0.021770 -0.038291 0.012954 0.000001 0.000001 0.000001 -0.000001 -0.000000 0.000001 -0.000001 -0.000003 0.000003 -0.000003 0.000001 -0.000000 -0.009090 -0.002348 -0.024224 0.000003 0.000001 -0.000001 0.000001 -0.000002 0.000003 0.000002 0.000001 -0.000001 0.032823 -0.025104 0.012281 -0.000002 0.000003 0.000002 0.000004 0.000006 -0.000003 -0.000005 -0.000003 -0.000001 0.000002 -0.000001 0.000006 0.039230 -0.011402 0.008390 0.000001 0.000001 0.000006 0.000001 0.000000 -0.000000 0.000001 0.000005 -0.000001 0.000000 -0.000004 0.000003 0.043417 0.002450 0.002889 -0.000001 -0.000000 -0.000003 0.000002 -0.000002 -0.000004 0.000002 0.000004 -0.000001 -0.000003 -0.000004 -0.000004 -0.016662 0.078956 0.057696 -7.305549 8.940179 -51.035826 -0.176972 -0.020537 -0.095144 21.367875 377.026661 -414.084453 -1.563972 -41.229768 -35.514183 0.000001 0.000001 -0.000002 -0.021773 -0.038278 0.012988 0.000001 0.000000 -0.000007 -0.000003 -0.000001 -0.000007 -0.000001 0.000001 -0.000008 0.000001 0.000000 0.000001 0.009113 -0.002381 -0.024211 -0.000001 -0.000002 -0.000005 0.000003 -0.000000 0.000000 0.000001 0.000000 -0.000006 -0.032828 -0.025095 0.012286 0.000003 0.000001 -0.000001 0.000002 0.000003 0.000004 0.000002 0.000002 0.000003 -0.000003 0.000009 -0.000002 -0.039192 -0.011487 0.008390 0.000002 0.000003 -0.000002 -0.000001 0.000003 -0.000003 0.000000 -0.000004 -0.000000 -0.000001 0.000001 -0.000001 -0.043421 0.002443 0.002845 0.000002 0.000001 -0.000005 -0.000001 0.000001 0.000003 0.000003 0.000000 0.000002 -0.000000 0.000005 0.000002 0.000000 0.000000 -0.000000 -1.574134 -0.445586 4.554901 -9.005052 -0.306070 -3.274349 20.092827 -0.642598 6.499501 0.000000 0.000000 -0.000000 0.000001 0.000000 0.000000 0.000002 -0.000001 0.000000 -0.038000 -0.085200 0.016200 -0.000000 0.000001 -0.000000 0.000000 0.000000 -0.000000 -1.553684 -0.443749 5.789257 9.274833 0.467263 6.395782 10.764044 0.306975 -3.098347 0.000003 -0.000000 0.000001 0.000003 -0.000000 -0.000001 0.000003 -0.000000 -0.000001 0.038000 -0.085200 0.016200 -0.000001 0.000001 0.000001 
-0.007475 0.260523 -0.015821 144.997949 -98.334220 133.837420 -0.000000 0.000000 -0.000001 -0.000000 0.000000 -0.000001 -0.000001 0.000000 -0.000001 0.000000 0.000001 -0.000001 0.000924 0.155148 0.009274 -0.509477 0.006479 4.254574 0.019937 0.078966 0.057518 -3.737542 4.790283 35.812963 0.177024 -0.020465 -0.095062 -39.911343 4.815146 -43.232512 -16.848328 -15.799846 -14.588138 0.000001 0.000001 0.000003 0.021770 -0.038291 0.012954 0.000000 0.000006 0.000003 0.000000 -0.000001 -0.000002 -0.000003 -0.000002 0.000004 -0.000000 -0.000002 -0.000003 -0.009090 -0.002348 -0.024224 -0.000001 -0.000000 -0.000001 -0.000003 -0.000000 0.000001 0.000002 -0.000000 0.000003 0.032823 -0.025104 0.012281 -0.000002 0.000006 0.000007 -0.000000 -0.000002 -0.000005 -0.000004 -0.000003 0.000001 -0.000002 0.000006 0.000003 0.039230 -0.011402 0.008390 -0.000000 0.000001 0.000004 -0.000004 0.000000 0.000001 -0.000000 0.000004 0.000001 -0.000001 0.000000 0.000002 0.043417 0.002450 0.002889 -0.000003 0.000004 -0.000002 0.000003 -0.000004 -0.000004 -0.000001 -0.000003 0.000001 0.000003 0.000001 0.000001 -0.016662 0.078957 0.057696 -8.436107 8.603914 -48.166788 -0.176972 -0.020537 -0.095144 16.639044 384.105059 -406.799701 -6.483931 -35.904740 -46.155802 0.000002 0.000001 0.000002 -0.021773 -0.038278 0.012988 -0.000001 -0.000003 -0.000002 0.000003 0.000003 -0.000003 0.000000 -0.000000 0.000001 0.000002 0.000002 0.000009 0.009114 -0.002381 -0.024212 0.000001 0.000000 -0.000001 0.000001 -0.000002 -0.000001 -0.000001 0.000000 -0.000006 -0.032828 -0.025095 0.012286 0.000000 -0.000000 -0.000003 0.000003 0.000003 -0.000003 -0.000001 -0.000002 0.000003 -0.000003 0.000003 -0.000006 -0.039192 -0.011488 0.008390 -0.000002 0.000000 0.000001 -0.000001 0.000003 -0.000002 -0.000000 0.000001 -0.000000 0.000000 0.000000 -0.000003 -0.043421 0.002443 0.002845 -0.000001 -0.000001 0.000002 -0.000002 0.000006 0.000001 -0.000002 -0.000001 -0.000000 0.000000 0.000001 0.000001 0.000000 0.000000 -0.000000 -1.595896 -0.371886 3.617582 -8.324746 -0.190268 -1.787331 18.412991 -0.687306 6.953761 0.000002 0.000000 -0.000000 0.000002 0.000000 -0.000000 -0.000003 -0.000000 -0.000000 -0.038000 -0.085200 0.016200 0.000005 -0.000000 -0.000000 0.000000 0.000000 -0.000000 -1.572872 -0.370193 4.851923 6.583615 0.410716 5.478470 10.831424 0.223125 -2.251336 -0.000005 0.000000 -0.000000 0.000002 -0.000000 0.000000 0.000005 0.000000 -0.000001 0.038000 -0.085200 0.016200 0.000002 0.000000 0.000000 
-0.007708 0.261031 -0.015497 155.497576 -100.326456 143.790181 -0.000000 0.000001 -0.000001 -0.000001 0.000001 0.000000 -0.000000 -0.000002 -0.000000 -0.000001 -0.000001 0.000000 0.000924 0.155148 0.009274 -3.590635 0.014437 3.829178 0.019937 0.078966 0.057518 -1.251046 4.264917 32.974138 0.177025 -0.020465 -0.095062 -37.999727 7.668784 -46.719027 -17.620911 -14.717176 -19.241427 -0.000003 -0.000002 0.000002 0.021770 -0.038291 0.012954 -0.000005 -0.000001 0.000001 0.000000 -0.000000 -0.000000 0.000003 0.000007 0.000009 0.000002 0.000004 -0.000000 -0.009090 -0.002348 -0.024223 0.000003 -0.000002 0.000001 -0.000000 0.000001 0.000001 0.000004 -0.000001 -0.000002 0.032823 -0.025104 0.012281 -0.000004 0.000001 0.000005 -0.000002 -0.000001 -0.000007 -0.000000 -0.000002 -0.000000 -0.000005 0.000003 0.000003 0.039230 -0.011402 0.008390 -0.000003 0.000001 0.000004 -0.000002 -0.000000 -0.000004 -0.000002 0.000006 0.000006 0.000001 -0.000005 0.000003 0.043417 0.002450 0.002889 -0.000006 0.000001 -0.000000 -0.000002 -0.000006 -0.000002 0.000001 0.000003 0.000001 -0.000002 -0.000001 0.000002 -0.016662 0.078957 0.057696 -4.944667 8.610160 -50.619673 -0.176972 -0.020537 -0.095144 19.375981 381.037348 -410.688401 -0.542886 -38.047251 -34.127009 0.000000 0.000001 -0.000000 -0.021773 -0.038278 0.012988 0.000000 -0.000001 0.000000 0.000001 0.000002 -0.000005 0.000001 -0.000000 0.000001 -0.000003 -0.000001 0.000004 0.009114 -0.002381 -0.024211 0.000002 -0.000002 -0.000005 -0.000001 -0.000001 0.000000 -0.000000 -0.000001 -0.000001 -0.032828 -0.025095 0.012286 0.000003 0.000000 -0.000004 -0.000001 0.000003 0.000006 0.000001 0.000003 0.000004 -0.000000 -0.000001 0.000003 -0.039192 -0.011488 0.008390 0.000001 0.000002 0.000001 -0.000002 0.000005 0.000000 0.000000 0.000002 -0.000000 -0.000003 0.000007 -0.000005 -0.043421 0.002443 0.002845 0.000001 0.000001 0.000004 -0.000001 0.000003 0.000001 -0.000002 -0.000004 -0.000002 0.000002 0.000004 0.000003 -0.000000 0.000000 -0.000000 -1.585682 -0.454572 4.653208 -7.981618 -0.239502 -2.446462 18.925546 -0.716030 7.245906 -0.000002 -0.000000 0.000000 -0.000003 -0.000001 0.000000 -0.000002 -0.000000 -0.000000 -0.038000 -0.085200 0.016200 -0.000000 0.000000 -0.000000 -0.000000 0.000000 -0.000000 -1.565290 -0.452696 5.887549 6.793295 0.382067 5.117348 12.529847 0.262305 -2.647021 -0.000002 0.000000 -0.000000 0.000001 0.000001 -0.000000 0.000002 -0.000000 -0.000000 0.038000 -0.085200 0.016200 -0.000001 0.000000 -0.000000 
-0.007193 0.261949 -0.015629 159.053591 -99.393917 147.209455 0.000000 -0.000001 -0.000000 -0.000000 -0.000000 -0.000001 -0.000000 0.000000 0.000001 0.000000 0.000000 -0.000000 0.000924 0.155148 0.009274 -2.368153 0.010333 5.708461 0.019937 0.078966 0.057518 -2.591671 4.799914 35.230314 0.177025 -0.020466 -0.095062 -41.750959 2.739610 -41.398555 -17.733951 -18.485528 -10.280516 -0.000004 -0.000004 0.000000 0.021770 -0.038291 0.012954 0.000001 0.000002 0.000001 -0.000005 -0.000002 -0.000000 -0.000002 -0.000002 0.000008 -0.000003 0.000000 0.000003 -0.009090 -0.002348 -0.024223 -0.000003 -0.000003 0.000001 -0.000004 -0.000002 -0.000004 -0.000000 0.000002 0.000001 0.032823 -0.025104 0.012281 0.000002 0.000001 0.000007 0.000004 0.000003 -0.000003 -0.000005 -0.000006 -0.000000 0.000001 0.000002 -0.000000 0.039230 -0.011402 0.008390 0.000002 0.000001 0.000003 0.000001 0.000000 -0.000000 -0.000003 0.000005 -0.000002 0.000003 -0.000004 0.000000 0.043417 0.002450 0.002889 0.000002 -0.000001 -0.000003 -0.000006 -0.000003 -0.000000 -0.000002 -0.000003 0.000001 -0.000001 -0.000003 0.000001 -0.016662 0.078957 0.057696 -5.161874 8.347202 -48.294543 -0.176972 -0.020537 -0.095144 12.045026 387.690498 -400.755640 -6.931612 -32.072864 -49.277718 0.000000 -0.000000 -0.000002 -0.021773 -0.038278 0.012988 -0.000002 -0.000001 -0.000003 0.000001 0.000002 -0.000001 -0.000003 -0.000001 -0.000010 0.000000 0.000003 -0.000002 0.009114 -0.002381 -0.024212 0.000002 -0.000001 -0.000003 -0.000000 -0.000003 0.000002 0.000001 0.000003 -0.000003 -0.032828 -0.025095 0.012286 -0.000001 -0.000000 0.000002 -0.000000 0.000003 0.000002 -0.000001 0.000004 0.000000 -0.000002 0.000003 -0.000002 -0.039192 -0.011488 0.008390 -0.000001 0.000002 0.000001 -0.000001 0.000001 0.000000 -0.000001 -0.000002 -0.000000 -0.000000 0.000001 -0.000001 -0.043421 0.002442 0.002845 -0.000000 -0.000001 -0.000001 -0.000004 0.000004 -0.000003 0.000001 -0.000003 0.000002 -0.000002 0.000003 0.000003 0.000000 0.000000 -0.000000 -1.582677 -0.380865 3.741501 -10.457871 -0.230611 -2.206672 19.940193 -0.805377 8.155663 -0.000002 -0.000001 0.000000 -0.000002 -0.000000 0.000000 0.000000 -0.000001 0.000000 -0.038000 -0.085200 0.016200 0.000001 0.000000 -0.000000 0.000000 0.000000 -0.000000 -1.560158 -0.379159 4.975841 5.877464 0.402295 5.321418 12.158222 0.177361 -1.789351 -0.000002 -0.000000 -0.000001 0.000002 -0.000000 0.000001 0.000007 0.000001 0.000000 0.038000 -0.085200 0.016200 -0.000002 -0.000001 0.000001 
